<svg width="29" height="29" viewBox="0 0 29 29" fill="none" xmlns="http://www.w3.org/2000/svg">
<path d="M21.1856 0.121094H7.06935C3.18682 0.121094 0 3.30791 0 7.21289V21.3291C0 25.2117 3.18682 28.3985 7.06935 28.3985H21.1856C25.0906 28.3985 28.2774 25.2117 28.2774 21.3067V7.21289C28.2774 3.30791 25.0906 0.121094 21.1856 0.121094ZM17.9315 14.2598H15.2608V23.0123H11.8945V14.2598H10.0991V10.669H11.67V9.14293C11.67 7.70662 12.3882 5.43994 15.4179 5.43994H18.1783V8.42478H16.2258C15.9117 8.42478 15.4852 8.62676 15.4852 9.32247V10.669H18.2457L17.9315 14.2598Z" fill="#695E4A"/>
</svg>
