<svg width="28" height="29" viewBox="0 0 28 29" fill="none" xmlns="http://www.w3.org/2000/svg">
<path d="M16.4251 14.2607C16.4251 15.6332 15.3256 16.746 13.9694 16.746C12.6132 16.746 11.5137 15.6332 11.5137 14.2607C11.5137 12.8882 12.6132 11.7754 13.9694 11.7754C15.3256 11.7754 16.4251 12.8882 16.4251 14.2607Z" fill="#695E4A"/>
<path d="M18.1181 6.74805H9.82314C8.01758 6.74805 6.54883 8.23449 6.54883 10.0618V18.4567C6.54883 20.284 8.01758 21.7704 9.82314 21.7704H18.1181C19.9236 21.7704 21.3924 20.284 21.3924 18.4567V10.0618C21.3924 8.23449 19.9236 6.74805 18.1181 6.74805ZM13.9706 18.4014C11.7138 18.4014 9.87771 16.5433 9.87771 14.2592C9.87771 11.9752 11.7138 10.117 13.9706 10.117C16.2274 10.117 18.0635 11.9752 18.0635 14.2592C18.0635 16.5433 16.2274 18.4014 13.9706 18.4014ZM18.6638 10.338C18.2116 10.338 17.8452 9.9671 17.8452 9.50951C17.8452 9.05193 18.2116 8.68107 18.6638 8.68107C19.1159 8.68107 19.4824 9.05193 19.4824 9.50951C19.4824 9.9671 19.1159 10.338 18.6638 10.338Z" fill="#695E4A"/>
<path d="M20.5736 0.121094H7.3672C3.30501 0.121094 0 3.46592 0 7.57705V20.9425C0 25.0537 3.30501 28.3985 7.3672 28.3985H20.5736C24.6358 28.3985 27.9408 25.0537 27.9408 20.9425V7.57705C27.9408 3.46592 24.6358 0.121094 20.5736 0.121094ZM23.0293 18.4572C23.0293 21.198 20.826 23.4279 18.1178 23.4279H9.82293C7.1148 23.4279 4.91146 21.198 4.91146 18.4572V10.0624C4.91146 7.32162 7.1148 5.09173 9.82293 5.09173H18.1178C20.826 5.09173 23.0293 7.32162 23.0293 10.0624V18.4572Z" fill="#695E4A"/>
</svg>
