<svg width="29" height="29" viewBox="0 0 29 29" fill="none" xmlns="http://www.w3.org/2000/svg">
<path d="M21.4472 0.121094H7.17935C3.22616 0.121094 0 3.30791 0 7.21289V21.3291C0 25.2117 3.22616 28.3985 7.17935 28.3985H21.4699C25.4231 28.3985 28.6492 25.2117 28.6492 21.3067V7.21289C28.6265 3.30791 25.4003 0.121094 21.4472 0.121094ZM9.54217 23.0123H5.45267V11.3423H9.54217V23.0123ZM7.4747 9.5469C6.31601 9.5469 5.38451 8.62676 5.38451 7.4822C5.38451 6.33764 6.31601 5.4175 7.4747 5.4175C8.63339 5.4175 9.56489 6.33764 9.56489 7.4822C9.54217 8.62676 8.61067 9.5469 7.4747 9.5469ZM23.1966 23.0123H23.1738H19.7659V17.3568C19.7659 15.9879 19.5842 14.2374 17.6985 14.2374C15.7673 14.2374 15.4492 15.7186 15.4492 17.2671V23.0123H12.0413V11.3423H15.222V12.9133H15.3129C15.8127 12.0156 16.9714 11.3198 18.789 11.3198C22.5377 11.3198 23.1966 13.4519 23.1966 16.6162V23.0123Z" fill="#695E4A"/>
</svg>
