<svg width="28" height="29" viewBox="0 0 28 29" fill="none" xmlns="http://www.w3.org/2000/svg">
<path d="M26.3504 1.67657C25.3281 0.639652 24.0964 0.121094 22.6563 0.121094H5.22833C3.78824 0.121094 2.55659 0.639652 1.53388 1.67657C0.511356 2.71369 0 3.96263 0 5.42306V23.0963C0 24.5566 0.511356 25.8057 1.53388 26.8428C2.55659 27.8799 3.78824 28.3985 5.22833 28.3985H22.6562C24.0962 28.3985 25.3279 27.8799 26.3502 26.8428C27.3729 25.8057 27.8842 24.5567 27.8842 23.0963V5.42306C27.8842 3.96263 27.3728 2.7135 26.3504 1.67657ZM21.331 11.0013C21.3431 11.1118 21.3493 11.2772 21.3493 11.4985C21.3493 12.5295 21.2009 13.5635 20.9045 14.6003C20.6081 15.6376 20.1542 16.6317 19.5427 17.5828C18.9319 18.5338 18.2027 19.3748 17.3557 20.105C16.5084 20.8349 15.4919 21.4181 14.3056 21.8535C13.1198 22.2895 11.8488 22.5076 10.4934 22.5076C8.38772 22.5076 6.4392 21.9303 4.64792 20.7771C4.93838 20.8138 5.24111 20.8323 5.55561 20.8323C7.31057 20.8323 8.88998 20.28 10.294 19.1751C9.47109 19.1632 8.73572 18.9056 8.08829 18.4019C7.44067 17.8988 6.98997 17.2607 6.73576 16.4874C7.05032 16.5364 7.28628 16.5607 7.4436 16.5607C7.70983 16.5607 8.01854 16.5117 8.3694 16.4138C7.48594 16.2417 6.74174 15.7972 6.13659 15.0792C5.53132 14.3611 5.22878 13.542 5.22878 12.6216V12.5847C5.87004 12.8913 6.47519 13.0509 7.04409 13.0633C5.94272 12.3145 5.39207 11.2408 5.39207 9.84164C5.39207 9.15427 5.56744 8.50385 5.91843 7.89018C6.87444 9.08076 8.03653 10.0318 9.40394 10.7436C10.7715 11.4553 12.236 11.8544 13.7972 11.9402C13.7368 11.7071 13.7065 11.4124 13.7065 11.0566C13.7065 9.98866 14.0786 9.07754 14.823 8.32266C15.5672 7.56784 16.4659 7.1903 17.5187 7.1903C18.6324 7.1903 19.5585 7.59544 20.2966 8.40551C21.1318 8.24599 21.943 7.93287 22.7294 7.46667C22.4269 8.41145 21.8638 9.12951 21.0412 9.62047C21.8276 9.50982 22.5596 9.30129 23.2373 8.99449C22.729 9.77993 22.0934 10.4488 21.331 11.0013Z" fill="#695E4A"/>
</svg>
