<svg width="29" height="29" viewBox="0 0 29 29" fill="none" xmlns="http://www.w3.org/2000/svg">
<path d="M12.3203 11.3569V16.5187L17.0781 13.9603L12.3203 11.3569Z" fill="#695E4A"/>
<path d="M21.1856 0H7.06935C3.18682 0 0 3.18682 0 7.09179V21.2081C0 25.0906 3.18682 28.2774 7.06935 28.2774H21.1856C25.0906 28.2774 28.2774 25.0906 28.2774 21.1856V7.09179C28.2774 3.18682 25.0906 0 21.1856 0ZM22.8912 14.8344C22.8912 16.3156 22.7566 17.8193 22.7566 17.8193C22.7566 17.8193 22.5995 19.076 22.0833 19.6371C21.41 20.3777 20.6694 20.3777 20.3328 20.4226C17.8641 20.6021 14.1611 20.6246 14.1611 20.6246C14.1611 20.6246 9.56046 20.5572 8.14659 20.4226C7.76507 20.3552 6.86737 20.3777 6.1941 19.6371C5.65548 19.076 5.52083 17.8193 5.52083 17.8193C5.52083 17.8193 5.38617 16.3156 5.38617 14.8344V13.443C5.38617 11.9618 5.52083 10.4582 5.52083 10.4582C5.52083 10.4582 5.67792 9.20138 6.1941 8.64032C6.86737 7.89972 7.60797 7.87728 7.94461 7.83239C10.4357 7.65285 14.1387 7.63041 14.1387 7.63041C14.1387 7.63041 17.8417 7.65285 20.3104 7.83239C20.647 7.87728 21.41 7.89972 22.0833 8.61788C22.6219 9.17894 22.7566 10.4582 22.7566 10.4582C22.7566 10.4582 22.8912 11.9618 22.8912 13.443V14.8344Z" fill="#695E4A"/>
</svg>
